<svg width="64" height="64" xmlns="http://www.w3.org/2000/svg">

 <g>
  <title>Layer 1</title>
  <path stroke="null" id="svg_1" d="m62,38.33333l-1,0l0,0.66667l3,0l0,-1l-2,0l0,0.33333zm-7,0l4,0l0,0.66667l-4,0l0,-0.66667zm-25,0l4,0l0,0.66667l-4,0l0,-0.66667zm-19,0l4,0l0,0.66667l-4,0l0,-0.66667zm25,0l4,0l0,0.66667l-4,0l0,-0.66667zm6,0l4,0l0,0.66667l-4,0l0,-0.66667zm-18,0l4,0l0,0.66667l-4,0l0,-0.66667zm25,0l4,0l0,0.66667l-4,0l0,-0.66667zm-32,0l5,0l0,0.66667l-5,0l0,-0.66667zm-12,0l4,0l0,0.66667l-4,0l0,-0.66667zm-2,0l-1,0l0,-0.33333l-2,0l0,1l3,0l0,-0.66667zm-3,-2.33333l2,0l0,1.33333l-2,0l0,-1.33333zm0,-1.66667l2,0l0,1l-2,0l0,-1zm0,-4l2,0l0,1.33333l-2,0l0,-1.33333zm0,2l2,0l0,1.33333l-2,0l0,-1.33333zm0,-3.66667l2,0l0,1l-2,0l0,-1zm0,-2l2,0l0,1.33333l-2,0l0,-1.33333zm2,-1l1,0l0,-0.66667l-3,0l0,1l2,0l0,-0.33333zm53,-0.66667l4,0l0,0.66667l-4,0l0,-0.66667zm-31,0l4,0l0,0.66667l-4,0l0,-0.66667zm25,0l4,0l0,0.66667l-4,0l0,-0.66667zm-44,0l4,0l0,0.66667l-4,0l0,-0.66667zm6,0l4,0l0,0.66667l-4,0l0,-0.66667zm6,0l5,0l0,0.66667l-5,0l0,-0.66667zm13,0l4,0l0,0.66667l-4,0l0,-0.66667zm12,0l4,0l0,0.66667l-4,0l0,-0.66667zm-6,0l4,0l0,0.66667l-4,0l0,-0.66667zm25,0.66667l1,0l0,0.33333l2,0l0,-1l-3,0l0,0.66667zm1,3l2,0l0,1l-2,0l0,-1zm0,3.66667l2,0l0,1.33333l-2,0l0,-1.33333zm0,2l2,0l0,1l-2,0l0,-1zm0,1.66667l2,0l0,1.33333l-2,0l0,-1.33333zm0,-9.33333l2,0l0,1.33333l-2,0l0,-1.33333zm0,3.66667l2,0l0,1.33333l-2,0l0,-1.33333z"/>
 </g>
</svg>